REM DIRINDEX 1\5,1\2\6,1\2\7,1\3\8,1\3\9,1\4\10,1\4\11,1\4\12
REM DIRNAME folder01,folder02,folder03,folder04,folder05,folder06,folder07,folder08,folder09,folder10,folder11,folder12
TITLE ""
FILE "JE_DB3000_5th_4B_44.mp3" MP3
  TRACK 01 AUDIO
    TITLE "0:"
    INDEX 01 00:00:00
  TRACK 02 AUDIO
    TITLE "6:cjc026_01935"
    INDEX 01 00:00:05
  TRACK 03 AUDIO
    TITLE "0:"
    INDEX 01 00:01:19
  TRACK 04 AUDIO
    TITLE "7:cjc026_01936"
    INDEX 01 00:01:44
  TRACK 05 AUDIO
    TITLE "0:"
    INDEX 01 00:02:32
  TRACK 06 AUDIO
    TITLE "6:cjc026_01937"
    INDEX 01 00:02:59
  TRACK 07 AUDIO
    TITLE "0:"
    INDEX 01 00:03:72
  TRACK 08 AUDIO
    TITLE "7:cjc026_01938"
    INDEX 01 00:04:21
  TRACK 09 AUDIO
    TITLE "0:"
    INDEX 01 00:05:16
  TRACK 10 AUDIO
    TITLE "6:cjc026_01939"
    INDEX 01 00:05:42
  TRACK 11 AUDIO
    TITLE "0:"
    INDEX 01 00:06:55
  TRACK 12 AUDIO
    TITLE "7:cjc026_01940"
    INDEX 01 00:07:07
  TRACK 13 AUDIO
    TITLE "0:"
    INDEX 01 00:08:01
  TRACK 14 AUDIO
    TITLE "6:cjc026_01941"
    INDEX 01 00:08:28
  TRACK 15 AUDIO
    TITLE "0:"
    INDEX 01 00:09:44
  TRACK 16 AUDIO
    TITLE "7:cjc026_01942"
    INDEX 01 00:09:69
  TRACK 17 AUDIO
    TITLE "0:"
    INDEX 01 00:10:66
  TRACK 18 AUDIO
    TITLE "6:cjc026_01943"
    INDEX 01 00:11:19
  TRACK 19 AUDIO
    TITLE "0:"
    INDEX 01 00:12:12
  TRACK 20 AUDIO
    TITLE "7:cjc026_01944"
    INDEX 01 00:12:38
  TRACK 21 AUDIO
    TITLE "0:"
    INDEX 01 00:13:30
  TRACK 22 AUDIO
    TITLE "6:cjc026_01945"
    INDEX 01 00:13:57
  TRACK 23 AUDIO
    TITLE "0:"
    INDEX 01 00:14:66
  TRACK 24 AUDIO
    TITLE "7:cjc026_01946"
    INDEX 01 00:15:17
  TRACK 25 AUDIO
    TITLE "0:"
    INDEX 01 00:16:06
  TRACK 26 AUDIO
    TITLE "6:cjc026_01947"
    INDEX 01 00:16:34
  TRACK 27 AUDIO
    TITLE "0:"
    INDEX 01 00:17:49
  TRACK 28 AUDIO
    TITLE "7:cjc026_01948"
    INDEX 01 00:18:01
  TRACK 29 AUDIO
    TITLE "0:"
    INDEX 01 00:18:72
  TRACK 30 AUDIO
    TITLE "6:cjc026_01949"
    INDEX 01 00:19:22
  TRACK 31 AUDIO
    TITLE "0:"
    INDEX 01 00:20:24
  TRACK 32 AUDIO
    TITLE "7:cjc026_01950"
    INDEX 01 00:20:49
  TRACK 33 AUDIO
    TITLE "0:"
    INDEX 01 00:21:43
  TRACK 34 AUDIO
    TITLE "6:cjc026_01951"
    INDEX 01 00:21:68
  TRACK 35 AUDIO
    TITLE "0:"
    INDEX 01 00:23:01
  TRACK 36 AUDIO
    TITLE "7:cjc026_01952"
    INDEX 01 00:23:24
  TRACK 37 AUDIO
    TITLE "0:"
    INDEX 01 00:24:24
  TRACK 38 AUDIO
    TITLE "6:cjc026_01953"
    INDEX 01 00:24:49
  TRACK 39 AUDIO
    TITLE "0:"
    INDEX 01 00:25:35
  TRACK 40 AUDIO
    TITLE "7:cjc026_01954"
    INDEX 01 00:25:62
  TRACK 41 AUDIO
    TITLE "0:"
    INDEX 01 00:26:60
  TRACK 42 AUDIO
    TITLE "6:cjc026_01955"
    INDEX 01 00:27:10
  TRACK 43 AUDIO
    TITLE "0:"
    INDEX 01 00:28:08
  TRACK 44 AUDIO
    TITLE "7:cjc026_01956"
    INDEX 01 00:28:33
  TRACK 45 AUDIO
    TITLE "0:"
    INDEX 01 00:29:27
  TRACK 46 AUDIO
    TITLE "6:cjc026_01957"
    INDEX 01 00:29:52
  TRACK 47 AUDIO
    TITLE "0:"
    INDEX 01 00:30:50
  TRACK 48 AUDIO
    TITLE "7:cjc026_01958"
    INDEX 01 00:31:00
  TRACK 49 AUDIO
    TITLE "0:"
    INDEX 01 00:31:67
  TRACK 50 AUDIO
    TITLE "6:cjc026_01959"
    INDEX 01 00:32:17
  TRACK 51 AUDIO
    TITLE "0:"
    INDEX 01 00:33:44
  TRACK 52 AUDIO
    TITLE "7:cjc026_01960"
    INDEX 01 00:33:69
  TRACK 53 AUDIO
    TITLE "0:"
    INDEX 01 00:34:71
  TRACK 54 AUDIO
    TITLE "6:cjc026_01961"
    INDEX 01 00:35:21
  TRACK 55 AUDIO
    TITLE "0:"
    INDEX 01 00:36:42
  TRACK 56 AUDIO
    TITLE "7:cjc026_01962"
    INDEX 01 00:36:68
  TRACK 57 AUDIO
    TITLE "0:"
    INDEX 01 00:37:71
  TRACK 58 AUDIO
    TITLE "6:cjc026_01963"
    INDEX 01 00:38:22
  TRACK 59 AUDIO
    TITLE "0:"
    INDEX 01 00:39:49
  TRACK 60 AUDIO
    TITLE "7:cjc026_01964"
    INDEX 01 00:40:01
  TRACK 61 AUDIO
    TITLE "0:"
    INDEX 01 00:41:00
